<svg xmlns="http://www.w3.org/2000/svg" xmlns:svg="http://www.w3.org/2000/svg" width="144" height="48"><g class="layer"><title>Layer 1</title><path d="m24,4l-6,13l-14,1l11,10l-3,14l12,-7l12,7l-3,-14l11,-10l-14,-1l-6,-13z" fill="#ffd700" id="svg_1"></path><path d="m72,4l-6,13l-14,1l11,10l-3,14l12,-7l12,7l-3,-14l11,-10l-14,-1l-6,-13z" fill="#ddd" id="svg_2" stroke="#000000"></path><path d="m120,4l-6,13l-14,1l11,10l-3,14l12,-7l12,7l-3,-14l11,-10l-14,-1l-6,-13z" fill="#696" id="svg_3"></path></g></svg>